<svg width="60" height="60" viewBox="0 0 60 60" fill="none" xmlns="http://www.w3.org/2000/svg">
	<path d="M55 19.9996V29.9995M25.625 13.7495H17C12.7996 13.7495 10.6994 13.7495 9.09508 14.567C7.68385 15.286 6.5365 16.4334 5.81745 17.8446C5 19.449 5 21.5492 5 25.7495V28.7495C5 31.0793 5 32.244 5.3806 33.163C5.88808 34.388 6.86145 35.3615 8.08658 35.869C9.00545 36.2495 10.1703 36.2495 12.5 36.2495V46.8745C12.5 47.455 12.5 47.7453 12.5241 47.9895C12.7579 50.3635 14.636 52.2418 17.0099 52.4755C17.2544 52.4995 17.5446 52.4995 18.125 52.4995C18.7054 52.4995 18.9957 52.4995 19.2401 52.4755C21.614 52.2418 23.4921 50.3635 23.7259 47.9895C23.75 47.7453 23.75 47.455 23.75 46.8745V36.2495H25.625C30.041 36.2495 35.443 38.6168 39.6108 40.8888C42.042 42.214 43.2577 42.8768 44.054 42.7793C44.7922 42.6888 45.3505 42.3573 45.7832 41.7523C46.25 41.1 46.25 39.7945 46.25 37.1838V12.8153C46.25 10.2045 46.25 8.89916 45.7832 8.24676C45.3505 7.64178 44.7922 7.31028 44.054 7.21986C43.2577 7.12233 42.042 7.78503 39.6108 9.11043C35.443 11.3823 30.041 13.7495 25.625 13.7495Z" stroke="white" stroke-width="5" stroke-linecap="round" stroke-linejoin="round" />
</svg>
