<svg width="40" height="60" viewBox="0 0 40 60" fill="none" xmlns="http://www.w3.org/2000/svg">
	<path d="M39.9917 19.7685C39.7775 25.2596 37.6757 30.5145 34.0331 34.6661C32.9544 35.854 32.1316 37.2465 31.6149 38.7588V43.003C31.6149 44.0342 31.2004 45.0231 30.4627 45.7523C29.725 46.4814 28.7244 46.8911 27.6811 46.8911H12.3188C11.2755 46.8911 10.275 46.4814 9.53725 45.7523C8.79953 45.0231 8.38509 44.0342 8.38509 43.003V38.7588C7.86811 37.2466 7.04536 35.8541 5.96687 34.6661C2.32131 30.5156 0.216547 25.2606 7.12475e-09 19.7685C-0.000123146 15.2063 1.59631 10.7844 4.51855 7.25294C7.44079 3.72145 11.5089 1.29771 16.033 0.392793C20.5571 -0.512123 25.2585 0.157493 29.3401 2.28807C33.4216 4.41865 36.6319 7.87903 38.4265 12.0823C39.4698 14.5162 40.005 17.1333 40 19.7767L39.9917 19.7685ZM36.0579 19.7685C36.0579 15.5591 34.3661 11.5221 31.3547 8.54554C28.3432 5.56903 24.2588 3.89685 20 3.89685C15.7411 3.89685 11.6567 5.56903 8.64529 8.54554C5.63384 11.5221 3.94203 15.5591 3.94203 19.7685C3.94203 29.4396 12.3188 33.7206 12.3188 38.7588V43.003H27.6811V38.7588C27.6811 33.7206 36.0579 29.4396 36.0579 19.7685ZM29.648 51.4545C29.6486 51.7101 29.5981 51.9634 29.4995 52.1997C29.4009 52.436 29.2561 52.6508 29.0734 52.8318C28.8907 53.0127 28.6737 53.1563 28.4348 53.2543C28.1959 53.3522 27.9398 53.4026 27.6811 53.4026H12.3188C11.7972 53.4026 11.2969 53.1978 10.928 52.8332C10.5592 52.4686 10.352 51.9742 10.352 51.4586C10.352 50.943 10.5592 50.4485 10.928 50.0839C11.2969 49.7193 11.7972 49.5145 12.3188 49.5145H27.6811C28.2021 49.5145 28.7017 49.7188 29.0705 50.0825C29.4392 50.4462 29.6469 50.9396 29.648 51.4545ZM26.9979 56.6195C27.0649 56.811 27.0698 57.0185 27.0119 57.2129C26.954 57.4073 26.8362 57.579 26.6749 57.7041C24.7361 59.1922 22.3512 60 19.8965 60C17.4417 60 15.0568 59.1922 13.118 57.7041C12.9552 57.5806 12.8356 57.4097 12.7762 57.2154C12.7168 57.0212 12.7205 56.8135 12.7867 56.6215C12.853 56.4294 12.9786 56.2628 13.1457 56.145C13.3128 56.0271 13.5131 55.9641 13.7184 55.9647H26.0704C26.2753 55.9646 26.4751 56.0276 26.6421 56.1449C26.8091 56.2623 26.9308 56.4282 26.9979 56.6195Z" fill="white" />
</svg>
