<svg width="50" height="50" viewBox="0 0 50 50" fill="none" xmlns="http://www.w3.org/2000/svg">
	<path fill-rule="evenodd" clip-rule="evenodd" d="M25 0C11.1929 0 0 11.1928 0 25C0 38.8071 11.1929 50 25 50C38.8072 50 50 38.8071 50 25C50 11.1928 38.8072 0 25 0ZM25 45C13.972 45 5 36.028 5 25C5 13.972 13.972 5 25 5C36.0281 5 45 13.972 45 25C45 36.028 36.0281 45 25 45ZM28.1305 15C28.1305 16.8126 26.8108 18.125 25.0254 18.125C23.1678 18.125 21.8805 16.8126 21.8805 14.9653C21.8805 13.1899 23.2027 11.875 25.0254 11.875C26.8108 11.875 28.1305 13.1899 28.1305 15ZM22.5055 22.5H27.5055V37.5H22.5055V22.5Z" fill="white" />
</svg>
