<svg width="60" height="60" viewBox="0 0 60 60" fill="none" xmlns="http://www.w3.org/2000/svg">
	<path d="M45 17.9C44.85 17.875 44.675 17.875 44.525 17.9C41.075 17.775 38.325 14.95 38.325 11.45C38.325 7.875 41.2 5 44.775 5C48.35 5 51.225 7.9 51.225 11.45C51.2 14.95 48.45 17.775 45 17.9Z" stroke="white" stroke-width="3.75" stroke-linecap="round" stroke-linejoin="round" />
	<path d="M42.4247 36.0998C45.8497 36.6748 49.6247 36.0748 52.2747 34.2998C55.7997 31.9498 55.7997 28.0998 52.2747 25.7498C49.5997 23.9749 45.7747 23.3749 42.3497 23.9749" stroke="white" stroke-width="3.75" stroke-linecap="round" stroke-linejoin="round" />
	<path d="M14.925 17.9C15.075 17.875 15.25 17.875 15.4 17.9C18.85 17.775 21.6 14.95 21.6 11.45C21.6 7.875 18.725 5 15.15 5C11.575 5 8.69995 7.9 8.69995 11.45C8.72495 14.95 11.475 17.775 14.925 17.9Z" stroke="white" stroke-width="3.75" stroke-linecap="round" stroke-linejoin="round" />
	<path d="M17.4999 36.0998C14.0749 36.6748 10.2999 36.0748 7.64985 34.2998C4.12485 31.9498 4.12485 28.0998 7.64985 25.7498C10.3249 23.9749 14.1499 23.3749 17.5749 23.9749" stroke="white" stroke-width="3.75" stroke-linecap="round" stroke-linejoin="round" />
	<path d="M30 36.5749C29.85 36.5499 29.675 36.5499 29.525 36.5749C26.075 36.4499 23.3249 33.6249 23.3249 30.1249C23.3249 26.5499 26.2 23.6748 29.775 23.6748C33.35 23.6748 36.225 26.5749 36.225 30.1249C36.2 33.6249 33.45 36.4749 30 36.5749Z" stroke="white" stroke-width="3.75" stroke-linecap="round" stroke-linejoin="round" />
	<path d="M22.7249 44.4499C19.1999 46.7999 19.1999 50.6499 22.7249 52.9999C26.725 55.6749 33.275 55.6749 37.275 52.9999C40.8 50.6499 40.8 46.7999 37.275 44.4499C33.3 41.7999 26.725 41.7999 22.7249 44.4499Z" stroke="white" stroke-width="3.75" stroke-linecap="round" stroke-linejoin="round" />
</svg>
