<svg width="60" height="60" viewBox="0 0 60 60" fill="none" xmlns="http://www.w3.org/2000/svg">
	<path d="M50 60H10V45H15.25C15.75 41.75 17.5 38.75 19.75 36.75C17.5 35 15.5 32.75 14.25 30H12.5C5.25 30 0 25 0 18.25V5H12.5V0H47.5V5H60V18.25C60 25 54.75 30 47.5 30H45.75C44.5 32.5 42.75 34.75 40.25 36.5C42.75 38.75 44.25 41.75 44.75 45H49.75V60H50ZM15 55H45V50H15V55ZM20.25 45H39.75C39 42.5 37.5 40.5 35.5 39C32 40.25 28 40.25 24.5 39C22.5 40.5 21 42.5 20.25 45ZM17.5 5V22.5C17.5 29.5 23 35 30 35C37 35 42.5 29.5 42.5 22.5V5H17.5ZM47.25 25C51.75 25 55 22.25 55 18.25V10H47.5V22.5C47.5 23.25 47.5 24.25 47.25 25ZM5 10V18.25C5 22.25 8.25 25 12.5 25H12.75C12.75 24.25 12.5 23.25 12.5 22.5V10H5Z" fill="white" />
</svg>
