<svg width="456" height="2136" viewBox="0 0 456 2136" fill="none" xmlns="http://www.w3.org/2000/svg">
<path d="M239 1C245.8 866.6 241.833 1784.33 239 2135" stroke="url(#paint0_linear_124_247)" stroke-width="10"/>
<path d="M6 6L450 6" stroke="url(#paint1_linear_124_247)" stroke-width="11" stroke-linecap="round"/>
<path fill-rule="evenodd" clip-rule="evenodd" d="M243 412C229.193 412 218 423.193 218 437C218 450.807 229.193 462 243 462C256.807 462 268 450.807 268 437C268 423.193 256.807 412 243 412ZM243 457C231.972 457 223 448.028 223 437C223 425.972 231.972 417 243 417C254.028 417 263 425.972 263 437C263 448.028 254.028 457 243 457ZM246.13 427C246.13 428.813 244.811 430.125 243.025 430.125C241.168 430.125 239.88 428.813 239.88 426.965C239.88 425.19 241.203 423.875 243.025 423.875C244.811 423.875 246.13 425.19 246.13 427ZM240.505 434.5H245.505V449.5H240.505V434.5Z" fill="white"/>
<path d="M273 202V212M243.625 195.75H235C230.8 195.75 228.699 195.75 227.095 196.567C225.684 197.286 224.537 198.433 223.817 199.845C223 201.449 223 203.549 223 207.75V210.75C223 213.079 223 214.244 223.381 215.163C223.888 216.388 224.861 217.362 226.087 217.869C227.005 218.25 228.17 218.25 230.5 218.25V228.875C230.5 229.455 230.5 229.745 230.524 229.99C230.758 232.364 232.636 234.242 235.01 234.476C235.254 234.5 235.545 234.5 236.125 234.5C236.705 234.5 236.996 234.5 237.24 234.476C239.614 234.242 241.492 232.364 241.726 229.99C241.75 229.745 241.75 229.455 241.75 228.875V218.25H243.625C248.041 218.25 253.443 220.617 257.611 222.889C260.042 224.214 261.258 224.877 262.054 224.779C262.792 224.689 263.35 224.357 263.783 223.752C264.25 223.1 264.25 221.795 264.25 219.184V194.815C264.25 192.205 264.25 190.899 263.783 190.247C263.35 189.642 262.792 189.31 262.054 189.22C261.258 189.122 260.042 189.785 257.611 191.11C253.443 193.382 248.041 195.75 243.625 195.75Z" stroke="white" stroke-width="5" stroke-linecap="round" stroke-linejoin="round"/>
<path d="M264 892V902M234.625 885.75H226C221.8 885.75 219.699 885.75 218.095 886.567C216.684 887.286 215.537 888.433 214.817 889.845C214 891.449 214 893.549 214 897.75V900.75C214 903.079 214 904.244 214.381 905.163C214.888 906.388 215.861 907.362 217.087 907.869C218.005 908.25 219.17 908.25 221.5 908.25V918.875C221.5 919.455 221.5 919.745 221.524 919.99C221.758 922.364 223.636 924.242 226.01 924.476C226.254 924.5 226.545 924.5 227.125 924.5C227.705 924.5 227.996 924.5 228.24 924.476C230.614 924.242 232.492 922.364 232.726 919.99C232.75 919.745 232.75 919.455 232.75 918.875V908.25H234.625C239.041 908.25 244.443 910.617 248.611 912.889C251.042 914.214 252.258 914.877 253.054 914.779C253.792 914.689 254.35 914.357 254.783 913.752C255.25 913.1 255.25 911.795 255.25 909.184V884.815C255.25 882.205 255.25 880.899 254.783 880.247C254.35 879.642 253.792 879.31 253.054 879.22C252.258 879.122 251.042 879.785 248.611 881.11C244.443 883.382 239.041 885.75 234.625 885.75Z" stroke="white" stroke-width="5" stroke-linecap="round" stroke-linejoin="round"/>
<path d="M271 1352V1362M241.625 1345.75H233C228.8 1345.75 226.699 1345.75 225.095 1346.57C223.684 1347.29 222.537 1348.43 221.817 1349.84C221 1351.45 221 1353.55 221 1357.75V1360.75C221 1363.08 221 1364.24 221.381 1365.16C221.888 1366.39 222.861 1367.36 224.087 1367.87C225.005 1368.25 226.17 1368.25 228.5 1368.25V1378.87C228.5 1379.46 228.5 1379.75 228.524 1379.99C228.758 1382.36 230.636 1384.24 233.01 1384.48C233.254 1384.5 233.545 1384.5 234.125 1384.5C234.705 1384.5 234.996 1384.5 235.24 1384.48C237.614 1384.24 239.492 1382.36 239.726 1379.99C239.75 1379.75 239.75 1379.46 239.75 1378.87V1368.25H241.625C246.041 1368.25 251.443 1370.62 255.611 1372.89C258.042 1374.21 259.258 1374.88 260.054 1374.78C260.792 1374.69 261.35 1374.36 261.783 1373.75C262.25 1373.1 262.25 1371.79 262.25 1369.18V1344.82C262.25 1342.2 262.25 1340.9 261.783 1340.25C261.35 1339.64 260.792 1339.31 260.054 1339.22C259.258 1339.12 258.042 1339.79 255.611 1341.11C251.443 1343.38 246.041 1345.75 241.625 1345.75Z" stroke="white" stroke-width="5" stroke-linecap="round" stroke-linejoin="round"/>
<g filter="url(#filter0_d_124_247)">
<path fill-rule="evenodd" clip-rule="evenodd" d="M209 653.973C209 650.676 211.977 648 215.65 648H262.35C266.023 648 269 650.694 269 653.973V702.027C269 705.324 266.023 708 262.35 708H215.65C211.977 708 209 705.306 209 702.027V653.973ZM215.65 698.997C215.65 700.656 217.15 702 219.007 702H258.977C260.83 702 262.333 700.665 262.333 698.997V656.979C262.333 655.32 260.833 653.976 258.977 653.976H219.023C217.17 653.976 215.667 655.311 215.667 656.979L215.65 698.997ZM222.333 666C222.333 664.344 223.81 663 225.697 663H232.3C234.157 663 235.663 664.332 235.663 666C235.663 667.656 234.187 669 232.3 669H225.697C223.84 669 222.333 667.668 222.333 666ZM222.333 678C222.333 676.344 223.853 675 225.65 675H252.347C254.18 675 255.663 676.332 255.663 678C255.663 679.656 254.143 681 252.347 681H225.65C223.817 681 222.333 679.668 222.333 678ZM222.333 690C222.333 688.344 223.853 687 225.65 687H252.347C254.18 687 255.663 688.332 255.663 690C255.663 691.656 254.143 693 252.347 693H225.65C223.817 693 222.333 691.668 222.333 690Z" fill="white"/>
</g>
<path d="M260.992 1128.77C260.777 1134.26 258.676 1139.51 255.033 1143.67C253.954 1144.85 253.132 1146.25 252.615 1147.76V1152C252.615 1153.03 252.2 1154.02 251.463 1154.75C250.725 1155.48 249.724 1155.89 248.681 1155.89H233.319C232.276 1155.89 231.275 1155.48 230.537 1154.75C229.8 1154.02 229.385 1153.03 229.385 1152V1147.76C228.868 1146.25 228.045 1144.85 226.967 1143.67C223.321 1139.52 221.217 1134.26 221 1128.77C221 1124.21 222.596 1119.78 225.519 1116.25C228.441 1112.72 232.509 1110.3 237.033 1109.39C241.557 1108.49 246.259 1109.16 250.34 1111.29C254.422 1113.42 257.632 1116.88 259.426 1121.08C260.47 1123.52 261.005 1126.13 261 1128.78L260.992 1128.77ZM257.058 1128.77C257.058 1124.56 255.366 1120.52 252.355 1117.55C249.343 1114.57 245.259 1112.9 241 1112.9C236.741 1112.9 232.657 1114.57 229.645 1117.55C226.634 1120.52 224.942 1124.56 224.942 1128.77C224.942 1138.44 233.319 1142.72 233.319 1147.76V1152H248.681V1147.76C248.681 1142.72 257.058 1138.44 257.058 1128.77ZM250.648 1160.45C250.649 1160.71 250.598 1160.96 250.499 1161.2C250.401 1161.44 250.256 1161.65 250.073 1161.83C249.891 1162.01 249.674 1162.16 249.435 1162.25C249.196 1162.35 248.94 1162.4 248.681 1162.4H233.319C232.797 1162.4 232.297 1162.2 231.928 1161.83C231.559 1161.47 231.352 1160.97 231.352 1160.46C231.352 1159.94 231.559 1159.45 231.928 1159.08C232.297 1158.72 232.797 1158.51 233.319 1158.51H248.681C249.202 1158.51 249.702 1158.72 250.07 1159.08C250.439 1159.45 250.647 1159.94 250.648 1160.45ZM247.998 1165.62C248.065 1165.81 248.07 1166.02 248.012 1166.21C247.954 1166.41 247.836 1166.58 247.675 1166.7C245.736 1168.19 243.351 1169 240.896 1169C238.442 1169 236.057 1168.19 234.118 1166.7C233.955 1166.58 233.836 1166.41 233.776 1166.22C233.717 1166.02 233.72 1165.81 233.787 1165.62C233.853 1165.43 233.979 1165.26 234.146 1165.14C234.313 1165.03 234.513 1164.96 234.718 1164.96H247.07C247.275 1164.96 247.475 1165.03 247.642 1165.14C247.809 1165.26 247.931 1165.43 247.998 1165.62Z" fill="white"/>
<path d="M254 1586.9C253.85 1586.87 253.675 1586.87 253.525 1586.9C250.075 1586.77 247.325 1583.95 247.325 1580.45C247.325 1576.87 250.2 1574 253.775 1574C257.35 1574 260.225 1576.9 260.225 1580.45C260.2 1583.95 257.45 1586.77 254 1586.9Z" stroke="white" stroke-width="3.75" stroke-linecap="round" stroke-linejoin="round"/>
<path d="M251.425 1605.1C254.85 1605.67 258.625 1605.07 261.275 1603.3C264.8 1600.95 264.8 1597.1 261.275 1594.75C258.6 1592.97 254.775 1592.37 251.35 1592.97" stroke="white" stroke-width="3.75" stroke-linecap="round" stroke-linejoin="round"/>
<path d="M223.925 1586.9C224.075 1586.87 224.25 1586.87 224.4 1586.9C227.85 1586.77 230.6 1583.95 230.6 1580.45C230.6 1576.87 227.725 1574 224.15 1574C220.575 1574 217.7 1576.9 217.7 1580.45C217.725 1583.95 220.475 1586.77 223.925 1586.9Z" stroke="white" stroke-width="3.75" stroke-linecap="round" stroke-linejoin="round"/>
<path d="M226.5 1605.1C223.075 1605.67 219.3 1605.07 216.65 1603.3C213.125 1600.95 213.125 1597.1 216.65 1594.75C219.325 1592.97 223.15 1592.37 226.575 1592.97" stroke="white" stroke-width="3.75" stroke-linecap="round" stroke-linejoin="round"/>
<path d="M239 1605.57C238.85 1605.55 238.675 1605.55 238.525 1605.57C235.075 1605.45 232.325 1602.62 232.325 1599.12C232.325 1595.55 235.2 1592.67 238.775 1592.67C242.35 1592.67 245.225 1595.57 245.225 1599.12C245.2 1602.62 242.45 1605.47 239 1605.57Z" stroke="white" stroke-width="3.75" stroke-linecap="round" stroke-linejoin="round"/>
<path d="M231.725 1613.45C228.2 1615.8 228.2 1619.65 231.725 1622C235.725 1624.67 242.275 1624.67 246.275 1622C249.8 1619.65 249.8 1615.8 246.275 1613.45C242.3 1610.8 235.725 1610.8 231.725 1613.45Z" stroke="white" stroke-width="3.75" stroke-linecap="round" stroke-linejoin="round"/>
<path d="M259 1855H219V1840H224.25C224.75 1836.75 226.5 1833.75 228.75 1831.75C226.5 1830 224.5 1827.75 223.25 1825H221.5C214.25 1825 209 1820 209 1813.25V1800H221.5V1795H256.5V1800H269V1813.25C269 1820 263.75 1825 256.5 1825H254.75C253.5 1827.5 251.75 1829.75 249.25 1831.5C251.75 1833.75 253.25 1836.75 253.75 1840H258.75V1855H259ZM224 1850H254V1845H224V1850ZM229.25 1840H248.75C248 1837.5 246.5 1835.5 244.5 1834C241 1835.25 237 1835.25 233.5 1834C231.5 1835.5 230 1837.5 229.25 1840ZM226.5 1800V1817.5C226.5 1824.5 232 1830 239 1830C246 1830 251.5 1824.5 251.5 1817.5V1800H226.5ZM256.25 1820C260.75 1820 264 1817.25 264 1813.25V1805H256.5V1817.5C256.5 1818.25 256.5 1819.25 256.25 1820ZM214 1805V1813.25C214 1817.25 217.25 1820 221.5 1820H221.75C221.75 1819.25 221.5 1818.25 221.5 1817.5V1805H214Z" fill="white"/>
<defs>
<filter id="filter0_d_124_247" x="189" y="629" width="100" height="100" filterUnits="userSpaceOnUse" color-interpolation-filters="sRGB">
<feFlood flood-opacity="0" result="BackgroundImageFix"/>
<feColorMatrix in="SourceAlpha" type="matrix" values="0 0 0 0 0 0 0 0 0 0 0 0 0 0 0 0 0 0 127 0" result="hardAlpha"/>
<feOffset dy="1"/>
<feGaussianBlur stdDeviation="10"/>
<feColorMatrix type="matrix" values="0 0 0 0 0 0 0 0 0 0 0 0 0 0 0 0 0 0 0.1 0"/>
<feBlend mode="normal" in2="BackgroundImageFix" result="effect1_dropShadow_124_247"/>
<feBlend mode="normal" in="SourceGraphic" in2="effect1_dropShadow_124_247" result="shape"/>
</filter>
<linearGradient id="paint0_linear_124_247" x1="240.877" y1="1" x2="240.877" y2="2135" gradientUnits="userSpaceOnUse">
<stop stop-color="#9E6C6C"/>
<stop offset="0.064999" stop-color="#9A6666"/>
<stop offset="0.0852015" stop-color="#9A6666" stop-opacity="0"/>
<stop offset="0.114232" stop-color="white" stop-opacity="0"/>
<stop offset="0.132737" stop-color="#996464"/>
<stop offset="0.174573" stop-color="#976161"/>
<stop offset="0.191398" stop-color="#966060" stop-opacity="0"/>
<stop offset="0.219926" stop-color="#955E5E" stop-opacity="0"/>
<stop offset="0.238214" stop-color="#945D5D"/>
<stop offset="0.281006" stop-color="#925A5A"/>
<stop offset="0.293808" stop-color="#915959" stop-opacity="0"/>
<stop offset="0.335503" stop-color="#8F5656" stop-opacity="0"/>
<stop offset="0.34355" stop-color="#8F5555"/>
<stop offset="0.393292" stop-color="#8D5252"/>
<stop offset="0.40207" stop-color="#8C5151" stop-opacity="0"/>
<stop offset="0.436816" stop-color="#8B4F4F" stop-opacity="0"/>
<stop offset="0.448886" stop-color="#8A4E4E"/>
<stop offset="0.497165" stop-color="#884A4A"/>
<stop offset="0.508869" stop-color="#874949" stop-opacity="0"/>
<stop offset="0.552027" stop-color="#854646" stop-opacity="0"/>
<stop offset="0.559708" stop-color="#854646"/>
<stop offset="0.609816" stop-color="#824242"/>
<stop offset="0.619691" stop-color="#824141" stop-opacity="0"/>
<stop offset="0.654803" stop-color="#803F3F" stop-opacity="0"/>
<stop offset="0.66541" stop-color="#803E3E"/>
<stop offset="0.711494" stop-color="#7E3B3B"/>
<stop offset="0.725027" stop-color="#7D3A3A" stop-opacity="0"/>
<stop offset="0.766357" stop-color="#7B3737" stop-opacity="0"/>
<stop offset="0.778061" stop-color="#7B3636"/>
<stop offset="0.813538" stop-color="#793333"/>
<stop offset="0.8289" stop-color="#783232" stop-opacity="0"/>
<stop offset="1" stop-color="#702626" stop-opacity="0"/>
</linearGradient>
<linearGradient id="paint1_linear_124_247" x1="6" y1="6" x2="466.586" y2="6.00001" gradientUnits="userSpaceOnUse">
<stop offset="0.197917" stop-color="white"/>
<stop offset="0.46875" stop-color="#A27171"/>
<stop offset="0.692708" stop-color="#8B4F4F"/>
<stop offset="0.963542" stop-color="#702626"/>
</linearGradient>
</defs>
</svg>
